<svg width="24" height="25" viewBox="0 0 24 25" fill="none" xmlns="http://www.w3.org/2000/svg">
<g id="Icons">
<g id="Icon">
<path d="M11.5131 15.6787L8.43362 12.6075C8.30304 12.4774 8.22964 12.3006 8.22964 12.1162C8.22964 11.9319 8.30304 11.7551 8.43362 11.625C8.70825 11.3619 9.14146 11.3619 9.41609 11.625L11.3067 13.5239V5.19351C11.3067 4.8105 11.6172 4.5 12.0002 4.5C12.3833 4.5 12.6938 4.8105 12.6938 5.19351V13.5239L14.5844 11.625C14.859 11.3619 15.2923 11.3619 15.5669 11.625C15.6975 11.7551 15.7709 11.9319 15.7709 12.1162C15.7709 12.3006 15.6975 12.4774 15.5669 12.6075L12.4874 15.6787C12.3603 15.8116 12.1841 15.8862 12.0002 15.8851C11.816 15.8882 11.6391 15.8133 11.5131 15.6787Z" fill="#3A3A3A"/>
<path d="M16.3099 8.9748H17.3089C19.3864 9.01994 21.0363 10.7363 20.9994 12.8139V15.9595C21.0363 18.037 19.3864 19.7534 17.3089 19.7985L6.69159 19.7325C4.61416 19.6873 2.96425 17.971 3.00112 15.8934V12.7478C2.97675 11.7457 3.3522 10.775 4.04458 10.0501C4.73697 9.3252 5.68937 8.90562 6.69159 8.88398H7.69058C8.07359 8.88398 8.38409 9.19448 8.38409 9.5775C8.38409 9.96051 8.07359 10.271 7.69058 10.271H6.69159C6.05641 10.2903 5.45538 10.563 5.02262 11.0284C4.58986 11.4937 4.36137 12.1129 4.38814 12.7478V15.8686C4.36137 16.5035 4.58986 17.1228 5.02262 17.5881C5.45538 18.0534 6.05641 18.3262 6.69159 18.3455L17.3089 18.4611C17.9441 18.4418 18.5451 18.169 18.9779 17.7037C19.4107 17.2383 19.6391 16.6191 19.6124 15.9842V12.8387C19.6391 12.2037 19.4107 11.5845 18.9779 11.1192C18.5451 10.6539 17.9441 10.3811 17.3089 10.3618H16.3099C15.9269 10.3618 15.6164 10.0513 15.6164 9.66831C15.6164 9.2853 15.9269 8.9748 16.3099 8.9748Z" fill="#3A3A3A"/>
</g>
</g>
</svg>
